<svg width="30" height="30" viewBox="0 0 30 30" fill="none" xmlns="http://www.w3.org/2000/svg">
<path d="M27.8571 9.53674e-07C27.3089 9.53674e-07 26.7606 0.209264 26.3421 0.627791L0.62779 26.3421C-0.209263 27.1791 -0.209263 28.5352 0.62779 29.3722C1.46484 30.2093 2.82087 30.2093 3.65792 29.3722L29.3722 3.65792C30.2093 2.82087 30.2093 1.46484 29.3722 0.627791C28.9537 0.209264 28.4054 9.53674e-07 27.8571 9.53674e-07Z" fill="#333B41"/>
<path d="M2.14286 9.53674e-07C1.59459 9.53674e-07 1.04632 0.209264 0.62779 0.627791C-0.209263 1.46484 -0.209263 2.82087 0.62779 3.65792L26.3421 29.3722C27.1791 30.2093 28.5352 30.2093 29.3722 29.3722C30.2093 28.5352 30.2093 27.1791 29.3722 26.3421L3.65792 0.627791C3.2394 0.209264 2.69113 9.53674e-07 2.14286 9.53674e-07Z" fill="#333B41"/>
</svg>
