<svg width="34" height="34" viewBox="0 0 34 34" fill="none" xmlns="http://www.w3.org/2000/svg">
<g filter="url(#filter0_d_2668_1285)">
<circle cx="17" cy="13" r="13" fill="#C4C4C4" fill-opacity="0.5"/>
<path fill-rule="evenodd" clip-rule="evenodd" d="M13.7017 5.04829C12.8501 5.087 12.2686 5.22215 11.7597 5.42002C11.2336 5.62431 10.7877 5.89803 10.3429 6.34276C9.89791 6.78749 9.62447 7.23351 9.42017 7.75967C9.2223 8.26869 9.08701 8.85014 9.04829 9.7016C9.00929 10.5549 9 10.8272 9 13C9 15.1728 9.00929 15.4449 9.04829 16.2984C9.08701 17.1499 9.2223 17.7313 9.42017 18.24C9.62447 18.7662 9.89791 19.2125 10.3429 19.6571C10.7877 20.102 11.2336 20.3754 11.7597 20.58C12.2686 20.7779 12.8501 20.913 13.7017 20.9517C14.5551 20.9907 14.8274 21 17.0001 21C19.1729 21 19.4452 20.9907 20.2986 20.9517C21.15 20.913 21.7315 20.7779 22.2407 20.58C22.7664 20.3754 23.2127 20.102 23.6575 19.6571C24.1022 19.2125 24.3755 18.7662 24.5801 18.24C24.7778 17.7313 24.9133 17.1499 24.952 16.2984C24.991 15.4449 25 15.1728 25 13C25 10.8272 24.991 10.5549 24.952 9.7016C24.9133 8.85014 24.7778 8.26869 24.5801 7.75967C24.3755 7.23351 24.1022 6.78749 23.6575 6.34276C23.2127 5.89803 22.7664 5.62431 22.2407 5.42002C21.7315 5.22215 21.15 5.087 20.2986 5.04829C19.4452 5.00943 19.1729 5 17.0001 5C14.8274 5 14.5551 5.00943 13.7017 5.04829ZM13.7675 19.5116C12.9874 19.4761 12.5638 19.3461 12.2821 19.2364C11.9085 19.091 11.6422 18.9177 11.3622 18.6378C11.0822 18.358 10.9089 18.0915 10.7636 17.7181C10.654 17.4362 10.5238 17.0126 10.4881 16.2326C10.4497 15.389 10.4414 15.1359 10.4414 12.9999C10.4414 10.8637 10.4497 10.6108 10.4881 9.76709C10.5238 8.9872 10.654 8.56362 10.7636 8.28175C10.9089 7.90831 11.0822 7.64173 11.3622 7.36186C11.6422 7.08199 11.9085 6.90841 12.2821 6.76355C12.5638 6.65398 12.9874 6.52369 13.7675 6.48797C14.611 6.44954 14.8641 6.4414 17.0001 6.4414C19.1361 6.4414 19.3891 6.44954 20.233 6.48797C21.0128 6.52369 21.4364 6.65398 21.7184 6.76355C22.0918 6.90841 22.3583 7.08199 22.6382 7.36186C22.9182 7.64173 23.0913 7.90831 23.2366 8.28175C23.3462 8.56362 23.4765 8.9872 23.5122 9.76709C23.5507 10.6108 23.5585 10.8637 23.5585 12.9999C23.5585 15.1359 23.5507 15.389 23.5122 16.2326C23.4765 17.0126 23.3462 17.4362 23.2366 17.7181C23.0913 18.0915 22.9182 18.358 22.6382 18.6378C22.3583 18.9177 22.0918 19.091 21.7184 19.2364C21.4364 19.3461 21.0128 19.4761 20.233 19.5116C19.3894 19.5503 19.1364 19.5583 17.0001 19.5583C14.8641 19.5583 14.611 19.5503 13.7675 19.5116ZM20.3105 8.72943C20.3105 9.25945 20.7403 9.68947 21.2706 9.68947C21.8008 9.68947 22.2305 9.25945 22.2305 8.72943C22.2305 8.19913 21.8008 7.76954 21.2706 7.76954C20.7403 7.76954 20.3105 8.19913 20.3105 8.72943ZM12.8916 13.0002C12.8916 15.2691 14.731 17.1082 16.9999 17.1082C19.2689 17.1082 21.108 15.2691 21.108 13.0002C21.108 10.7312 19.2689 8.89203 16.9999 8.89203C14.731 8.89203 12.8916 10.7312 12.8916 13.0002ZM14.334 13.0001C14.334 11.5273 15.5278 10.3334 17.0006 10.3334C18.4734 10.3334 19.6673 11.5273 19.6673 13.0001C19.6673 14.473 18.4734 15.6668 17.0006 15.6668C15.5278 15.6668 14.334 14.473 14.334 13.0001Z" fill="white"/>
</g>
<defs>
<filter id="filter0_d_2668_1285" x="0" y="0" width="34" height="34" filterUnits="userSpaceOnUse" color-interpolation-filters="sRGB">
<feFlood flood-opacity="0" result="BackgroundImageFix"/>
<feColorMatrix in="SourceAlpha" type="matrix" values="0 0 0 0 0 0 0 0 0 0 0 0 0 0 0 0 0 0 127 0" result="hardAlpha"/>
<feOffset dy="4"/>
<feGaussianBlur stdDeviation="2"/>
<feComposite in2="hardAlpha" operator="out"/>
<feColorMatrix type="matrix" values="0 0 0 0 0 0 0 0 0 0 0 0 0 0 0 0 0 0 0.25 0"/>
<feBlend mode="normal" in2="BackgroundImageFix" result="effect1_dropShadow_2668_1285"/>
<feBlend mode="normal" in="SourceGraphic" in2="effect1_dropShadow_2668_1285" result="shape"/>
</filter>
</defs>
</svg>
